<?xml version="1.0" encoding="UTF-8"?>
<!-- Created with Inkscape (http://www.inkscape.org/) -->
<svg width="259" height="77" version="1.1" viewBox="0 0 68.527 20.373" xmlns="http://www.w3.org/2000/svg" xmlns:cc="http://creativecommons.org/ns#" xmlns:dc="http://purl.org/dc/elements/1.1/" xmlns:rdf="http://www.w3.org/1999/02/22-rdf-syntax-ns#">
 <metadata>
  <rdf:RDF>
   <cc:Work rdf:about="">
    <dc:format>image/svg+xml</dc:format>
    <dc:type rdf:resource="http://purl.org/dc/dcmitype/StillImage"/>
    <dc:title/>
   </cc:Work>
  </rdf:RDF>
 </metadata>
 <g transform="translate(0 -276.63)">
  <g transform="translate(41.762 193.92)">
   <g transform="matrix(.26506 0 0 .26445 -81.469 75.894)" fill="#e03419">
    <path d="m149.81 102.82h20.195l29.705-38.68-18.485-0.53426z"/>
    <path d="m178.12 59.759h19.447l-16.455-21.37h36.864l5.6631-12.608h-73.727z"/>
    <path d="m222.36 38.389 5.9837-12.288h32.696l-29.918 37.291 30.559 39.108h-19.554l-29.811-38.894 19.447-25.11z"/>
   </g>
   <g transform="matrix(.26506 0 0 .26445 -85.474 117.82)" fill="#263465">
    <path d="m364.14-132.6-9.7461 36.416 6.6484-0.0742 1.4356-6.2715h6.7246l0.0762 6.498h6.5723l0.74594-36.462zm5.9689 5.2878-0.68011 20.098-5.4391-0.15173 4.8359-20.021z"/>
    <path d="m299.92-108.95 6.8 0.22666-0.60444 4.4955-0.15111 1.7 0.52889 1.8133 1.1333 0.30223h0.8311l1.5111-0.60445 0.83111-0.8311 0.30222-0.60444v-6.4978l-0.22667-1.0578-2.4178-2.1155-3.3244-1.7378-1.4355-1.5111-1.2844-1.36-0.52889-1.5867 0.37778-6.3466 0.67999-2.4178 1.2089-2.04 1.7378-1.5867 2.7955-1.2089 3.2489-0.68 3.5511 0.0756 3.6266 0.98222 1.4356 1.2844 0.30222 1.2089v9.2177h-7.1022l0.15111-3.2489 0.30222-1.5866 0.0756-1.0578-0.22667-0.90666-0.45333-0.68-1.2089-0.37777-1.6622 0.0756-1.0578 0.90666-0.45333 1.2089-0.0756 6.6489 0.90666 1.1333 1.6622 1.2089 3.4755 1.5867 2.1911 1.5111 0.75555 1.2089v8.16l-0.75555 2.72-1.8889 2.4178-2.1911 1.4355-3.5511 1.36-3.0222 0.22667-2.5689-0.07556-3.7022-1.2089-1.4356-2.04-4e-5 -4.8355z"/>
    <path d="m321.23-96.559 5.2133-35.662h11.107l-0.22667 27.578 7.7066-27.275h11.333l-5.8178 36.04h-6.6489l4.1555-27.427h-1.5867l-7.1778 27.351h-7.1777l1.1333-27.653h-1.5867l-4.5333 27.351z"/>
    <path d="m385.14-132.52-5.8164 36.645 6.6484-0.15039 1.5118-10.502 3.4746-0.0763 1.5859 10.578 6.8766 0.15111-0.15111-1.5102-1.8899-8.8404-0.60332-1.4355 1.0566-1.3604 1.4356-1.7383 0.98242-2.6445 0.75586-4.1543 0.90625-7.0273 0.22656-4.6836-0.30078-1.1348-1.4355-0.98047-2.1914-1.1348zm5.5156 4.7598 3.4766 0.0762 0.67969 0.60547 0.15039 4.1543-0.45313 5.2129-1.209 6.0449-1.3594 0.45312h-3.0215l-0.9082-0.60351z"/>
    <path d="m405.09-95.955 6.8 0.07556 5.0622-31.507h5.2133l1.2844-5.3644h-17.982l-0.98222 4.76h5.44z"/>
   </g>
   <g transform="matrix(.26506 0 0 .26445 -85.474 117.89)" fill="#263465">
    <path d="m330.55-92.555-9.7461 36.416 6.6484-0.0742 1.4356-6.2715h6.7246l0.0762 6.498h6.5723l0.74594-36.462zm5.9689 5.2878-0.68011 20.098-5.4391-0.15172 4.8359-20.021z"/>
    <path d="m305.96-92.85-7.1602 36.863h6.7749l1.7983-7.9818 6.6006 0.07555 3.3125-0.42773 1.2812-1.0684 1.2832-2.5645 2.7774-17.523-0.10742-4.168-0.53321-1.0684-1.0684-1.0684-1.9238-1.0684zm8.6543 4.8086 0.85547 0.85547v1.4961l-1.0684 11.432-0.74805 4.2754-0.85547 0.85352-0.64062 0.21484-3.7402-0.32031 2.8848-18.699z"/>
    <path d="m346.91-69.057 6.8 0.22667-0.60444 4.4955-0.15111 1.7 0.52889 1.8133 1.1333 0.30222h0.8311l1.5111-0.60444 0.83111-0.83111 0.30222-0.60444v-6.4977l-0.22667-1.0578-2.4178-2.1155-3.3244-1.7378-1.4355-1.5111-1.2844-1.36-0.52889-1.5867 0.37778-6.3466 0.67999-2.4178 1.2089-2.04 1.7378-1.5867 2.7955-1.2089 3.2489-0.68 3.5511 0.07555 3.6266 0.98222 1.4356 1.2844 0.30222 1.2089v9.2177h-7.1022l0.15111-3.2489 0.30222-1.5867 0.0756-1.0578-0.22667-0.90666-0.45333-0.68-1.2089-0.37778-1.6622 0.07556-1.0578 0.90666-0.45333 1.2089-0.0756 6.6489 0.90666 1.1333 1.6622 1.2089 3.4755 1.5867 2.1911 1.5111 0.75555 1.2089v8.16l-0.75555 2.72-1.8889 2.4178-2.1911 1.4356-3.5511 1.36-3.0222 0.22666-2.5689-0.0756-3.7022-1.2089-1.4356-2.04-4e-5 -4.8355z"/>
    <path d="m368.03-69.057 6.8 0.22667-0.60444 4.4955-0.15111 1.7 0.52889 1.8133 1.1333 0.30222h0.8311l1.5111-0.60444 0.83111-0.83111 0.30222-0.60444v-6.4977l-0.22667-1.0578-2.4178-2.1155-3.3244-1.7378-1.4355-1.5111-1.2844-1.36-0.52889-1.5867 0.37778-6.3466 0.67999-2.4178 1.2089-2.04 1.7378-1.5867 2.7955-1.2089 3.2489-0.68 3.5511 0.07555 3.6266 0.98222 1.4356 1.2844 0.30222 1.2089v9.2177h-7.1022l0.15111-3.2489 0.30222-1.5867 0.0756-1.0578-0.22667-0.90666-0.45333-0.68-1.2089-0.37778-1.6622 0.07556-1.0578 0.90666-0.45333 1.2089-0.0756 6.6489 0.90666 1.1333 1.6622 1.2089 3.4755 1.5867 2.1911 1.5111 0.75555 1.2089v8.16l-0.75555 2.72-1.8889 2.4178-2.1911 1.4356-3.5511 1.36-3.0222 0.22666-2.5689-0.0756-3.7022-1.2089-1.4356-2.04-4e-5 -4.8355z"/>
   </g>
  </g>
 </g>
</svg>
