<?xml version="1.0" encoding="UTF-8" standalone="no"?>
<svg
   xmlns:dc="http://purl.org/dc/elements/1.1/"
   xmlns:cc="http://creativecommons.org/ns#"
   xmlns:rdf="http://www.w3.org/1999/02/22-rdf-syntax-ns#"
   xmlns:svg="http://www.w3.org/2000/svg"
   xmlns="http://www.w3.org/2000/svg"
   id="svg4753"
   version="1.1"
   viewBox="0 0 23.812499 23.812501"
   height="90"
   width="90">
  <defs
     id="defs4747" />
  <metadata
     id="metadata4750">
    <rdf:RDF>
      <cc:Work
         rdf:about="">
        <dc:format>image/svg+xml</dc:format>
        <dc:type
           rdf:resource="http://purl.org/dc/dcmitype/StillImage" />
        <dc:title></dc:title>
      </cc:Work>
    </rdf:RDF>
  </metadata>
  <g
     transform="translate(0,-273.18748)"
     id="layer1">
    <g
       transform="translate(-169.10484,62.515559)"
       id="g5349">
      <rect
         style="fill:#62c8f8;fill-opacity:1;stroke:none;stroke-width:0.25562042;stroke-opacity:1"
         id="rect4522"
         width="23.8125"
         height="23.8125"
         x="169.10484"
         y="210.67192"
         rx="0.025562044" />
      <path
         style="fill:#ffffff;fill-opacity:1;stroke:none;stroke-width:0.05813888;stroke-opacity:1"
         d="m 182.14482,220.08053 c -0.70853,0 -1.2404,0.51909 -1.2458,1.21591 -0.003,0.29261 -0.004,0.2957 -0.18565,0.29502 -0.56204,-0.002 -1.47458,-0.4208 -2.03362,-0.93306 l -0.38926,-0.35668 -0.0867,0.20724 c -0.16667,0.39891 -0.078,0.89828 0.21963,1.23726 l 0.18361,0.20917 -0.25266,-0.0427 -0.25256,-0.0427 0.0417,0.22449 c 0.0706,0.38102 0.32793,0.71628 0.70037,0.91262 0.14486,0.0763 0.15473,0.0936 0.0582,0.10107 -0.064,0.005 -0.16205,0.004 -0.21801,-9.7e-4 -0.13891,-0.0141 -0.12771,0.0812 0.0382,0.32522 0.16695,0.24568 0.48722,0.47442 0.7331,0.52359 0.0979,0.0196 0.16845,0.0649 0.15672,0.10061 -0.0439,0.13344 -0.67274,0.38511 -1.14587,0.45853 -0.4699,0.0729 -0.4798,0.0776 -0.34373,0.16601 0.1277,0.083 0.72796,0.29657 1.01223,0.36019 0.29261,0.0655 1.28575,0.0334 1.61946,-0.0523 0.64745,-0.16623 1.07429,-0.41547 1.57952,-0.92262 0.6728,-0.67535 1.04447,-1.48088 1.07898,-2.33827 0.0128,-0.31862 0.0311,-0.35785 0.3016,-0.6477 0.15833,-0.16969 0.27533,-0.32106 0.26003,-0.33635 -0.0154,-0.0153 -0.13472,-0.004 -0.26547,0.0257 l -0.23781,0.0534 0.20101,-0.26322 c 0.20827,-0.27278 0.25375,-0.3942 0.12832,-0.34259 -0.41669,0.17147 -0.6979,0.23096 -0.78862,0.16669 -0.31102,-0.22027 -0.54798,-0.30318 -0.86686,-0.30318 z"
         id="rect4713-6" />
    </g>
  </g>
</svg>
