<?xml version="1.0" encoding="UTF-8" standalone="no"?>
<svg
   xmlns:dc="http://purl.org/dc/elements/1.1/"
   xmlns:cc="http://creativecommons.org/ns#"
   xmlns:rdf="http://www.w3.org/1999/02/22-rdf-syntax-ns#"
   xmlns:svg="http://www.w3.org/2000/svg"
   xmlns="http://www.w3.org/2000/svg"
   viewBox="0 0 200 200"
   height="200"
   width="200"
   id="svg2"
   version="1.1">
  <metadata
     id="metadata8">
    <rdf:RDF>
      <cc:Work
         rdf:about="">
        <dc:format>image/svg+xml</dc:format>
        <dc:type
           rdf:resource="http://purl.org/dc/dcmitype/StillImage" />
        <dc:title></dc:title>
      </cc:Work>
    </rdf:RDF>
  </metadata>
  <defs
     id="defs6" />
  <g
     id="g4489">
    <path
       id="path4493"
       d="M 0,100 V 0 H 100 200 V 100 200 H 100 0 Z"
       style="fill:#fbf6f6" />
    <path
       id="path4491"
       d="M 0,100 V 0 H 100 200 V 100 200 H 100 0 Z m 40.685549,44.82569 c 2.751621,-2.58502 3.020838,-6.89871 0.564451,-9.04428 -0.9625,-0.8407 -3.401504,-2.05847 -5.420008,-2.70613 -4.515703,-1.44894 -6.196953,-3.34373 -5.34596,-6.02497 0.822626,-2.59186 4.898034,-3.65289 8.218936,-2.13979 3.184447,1.45094 4.467418,0.41846 1.85433,-1.49228 -4.115204,-3.00911 -11.668101,-0.92653 -12.835938,3.53928 -0.757415,2.89636 2.47809,6.48605 7.092072,7.86844 5.282441,1.58265 6.81807,3.49263 5.367599,6.67607 -1.484089,3.25722 -5.768075,4.27152 -9.352484,2.21435 -3.383551,-1.94189 -4.762755,-0.48413 -1.622771,1.7152 3.254682,2.27967 8.715,1.99148 11.479773,-0.60589 z m 24.396807,0.63172 c 1.64067,-0.84842 2.739317,-1.93693 2.441437,-2.41891 -0.297879,-0.48198 -1.912535,-0.19241 -3.588123,0.64348 C 57.777818,146.75392 51,143.13622 51,136.77749 V 134 h 8.5 8.5 v -3.07692 C 68,126.48673 63.269795,122 58.5927,122 c -5.372238,0 -9.640721,4.24642 -10.3192,10.26587 -1.265784,11.23 7.420099,18.04666 16.808856,13.19154 z M 51,131.11078 c 0,-2.88164 3.136041,-6.03448 6.683712,-6.71951 2.568054,-0.49588 3.679975,-0.11849 5.75,1.95153 C 64.84517,127.75426 66,129.82955 66,130.95455 66,132.83333 65.388889,133 58.5,133 51.813267,133 51,132.79514 51,131.11078 Z m 35.535183,14.27421 C 88.804144,143.89831 89,143.89831 89,145.38499 89,146.27325 89.45,147 90,147 c 0.599089,0 1,-3.95505 1,-9.86514 0,-8.4661 -0.293926,-10.23881 -2.07258,-12.5 C 87.517575,122.84253 85.902878,122 83.87776,122 80.557672,122 75,124.52016 75,126.02568 c 0,1.27399 0.135402,1.25235 3.89326,-0.62232 4.085273,-2.038 7.880344,-1.12903 9.14211,2.18967 1.746503,4.59365 1.2418,6.40641 -1.78537,6.41255 -8.443088,0.0171 -14.209274,4.34114 -12.341192,9.25457 0.529069,1.39155 1.553525,2.76677 2.276568,3.05603 2.73645,1.09474 7.977519,0.62319 10.349807,-0.93119 z M 77.75,143.96108 c -4.435343,-2.68771 -0.685378,-7.216 7,-8.45288 4.189427,-0.67425 4.25,-0.64219 4.25,2.24891 0,1.61311 -0.817028,3.67231 -1.815617,4.57603 -2.360353,2.13609 -7.213783,2.97356 -9.434383,1.62794 z m 30.34375,1.98875 c 1.07925,-0.5776 1.7038,-1.46838 1.3879,-1.97952 -0.34084,-0.55149 -1.31485,-0.46692 -2.39554,0.20799 -1.00165,0.62554 -2.55579,0.85545 -3.45364,0.51091 C 102.28051,144.17041 102,142.42498 102,134.53138 V 125 h 3.5 c 1.925,0 3.5,-0.45 3.5,-1 0,-0.55 -1.575,-1 -3.5,-1 -3.47459,0 -3.5,-0.0322 -3.5,-4.44098 0,-6.20919 -1.67141,-6.58357 -2.49987,-0.55996 C 98.948386,122.01072 98.435248,123 96.906162,123 95.857773,123 95,123.45 95,124 c 0,0.55 0.9,1 2,1 1.858586,0 2,0.66667 2,9.42857 0,7.2381 0.365079,9.79365 1.57143,11 1.81946,1.81946 4.72092,2.02052 7.52232,0.52126 z m 22.98861,-0.49242 c 1.64067,-0.84842 2.73931,-1.93693 2.44143,-2.41891 -0.29788,-0.48198 -1.91253,-0.19241 -3.58812,0.64348 C 123.77782,146.75392 117,143.13622 117,136.77749 V 134 h 8.5 8.5 v -3.07692 C 134,126.48673 129.26979,122 124.5927,122 c -5.37224,0 -9.64072,4.24642 -10.3192,10.26587 -1.26578,11.23 7.4201,18.04666 16.80886,13.19154 z M 117,131.11078 c 0,-2.88164 3.13604,-6.03448 6.68371,-6.71951 2.56806,-0.49588 3.67998,-0.11849 5.75,1.95153 1.41146,1.41146 2.56629,3.48675 2.56629,4.61175 0,1.87878 -0.61111,2.04545 -7.5,2.04545 -6.68673,0 -7.5,-0.20486 -7.5,-1.88922 z m 25,7.83956 c 0,-11.31501 2.9988,-16.0792 9.30007,-14.77503 0.86283,0.17858 1.71079,-0.12531 1.88435,-0.67531 0.17357,-0.55 -1.06328,-1.13477 -2.74856,-1.2995 -2.24578,-0.21951 -3.78147,0.41783 -5.75,2.38637 C 142.11433,127.1584 142,127.18179 142,125.13636 142,123.96136 141.55,123 141,123 c -0.61111,0 -1,4.66667 -1,12 0,7.33333 0.38889,12 1,12 0.58385,0 1,-3.34989 1,-8.04966 z m 27.53518,6.43465 c 2.26896,-1.48668 2.46482,-1.48668 2.46482,0 0,0.88826 0.45,1.61501 1,1.61501 0.59909,0 1,-3.95505 1,-9.86514 0,-8.4661 -0.29393,-10.23881 -2.07258,-12.5 C 170.51758,122.84253 168.90288,122 166.87776,122 163.55767,122 158,124.52016 158,126.02568 c 0,1.27399 0.1354,1.25235 3.89326,-0.62232 4.08527,-2.038 7.88034,-1.12903 9.14211,2.18967 1.7465,4.59365 1.2418,6.40641 -1.78537,6.41255 -8.44309,0.0171 -14.20927,4.34114 -12.34119,9.25457 0.52907,1.39155 1.55352,2.76677 2.27657,3.05603 2.73645,1.09474 7.97752,0.62319 10.3498,-0.93119 z M 160.75,143.96108 c -4.43534,-2.68771 -0.68538,-7.216 7,-8.45288 4.18943,-0.67425 4.25,-0.64219 4.25,2.24891 0,1.61311 -0.81703,3.67231 -1.81562,4.57603 -2.36035,2.13609 -7.21378,2.97356 -9.43438,1.62794 z M 132,94.5 c 0,-1.925 0.24293,-3.5 0.53984,-3.5 0.29691,0 2.32191,0.909146 4.5,2.020324 L 141,95.040648 V 85.020324 c 0,-5.511178 -0.3375,-10.017359 -0.75,-10.013735 -0.4125,0.0036 -2.1,0.900659 -3.75,1.993411 -4.04795,2.680849 -4.33168,2.574968 -4.68963,-1.75 -0.30031,-3.628426 -0.44577,-3.759852 -4.48682,-4.053904 l -4.17645,-0.303904 1.42645,-3.413977 c 3.97893,-9.522914 -0.90627,-20.794502 -10.80508,-24.930487 -7.70592,-3.219739 -17.08923,-0.798655 -22.32216,5.759568 l -2.807731,3.518818 -3.458935,-2.638259 C 80.21033,45.397575 70.20478,44.93139 64.529571,48.225715 52.444018,55.241094 52.022835,72.111637 63.748791,79.5 c 3.103688,1.955591 3.175024,2.168384 3.212689,9.583333 0.02119,4.170834 0.33852,7.883334 0.705187,8.25 C 68.033333,97.7 82.658333,98 100.16667,98 H 132 Z M 68.454545,70.545455 c -6.313682,-6.313683 0.445096,-16.815306 8.782189,-13.645549 3.957348,1.504581 6.120365,5.383055 5.335464,9.566939 -1.224926,6.529418 -9.326336,8.869926 -14.117653,4.07861 z M 105,68.293772 c -8.850883,-3.23549 -7.410481,-16.245274 1.82771,-16.507936 9.49429,-0.269945 12.41266,12.126651 3.71077,15.762533 -1.91083,0.798397 -3.6012,1.416105 -3.75636,1.372684 C 106.62695,68.877632 105.825,68.595355 105,68.293772 Z"
       style="fill:#c40404" />
  </g>
</svg>
